<svg xmlns="http://www.w3.org/2000/svg" viewBox="0 0 582 587"><path fill="#08542d" d="M283.507 107.224c-5.315.678-13.962 5.018-76.431 38.357-38.741 20.676-71.916 38.597-73.722 39.824-4.421 3.004-9.071 8.93-12.24 15.595l-2.614 5.5v158.042l3.281 6.664c5.567 11.31 6.517 11.913 83.406 52.982 79.951 42.704 79.717 42.608 93.777 38.822 4.286-1.154 136.204-71.389 145.788-77.619 6.086-3.957 10.246-9.284 13.466-17.246l2.282-5.645v-155l-2.413-5.993c-5.293-13.147-1.151-10.649-142.365-85.861-16.199-8.627-20.926-9.863-32.215-8.422m.493 16.112c-3.607 1.023-73.162 37.533-75 39.367-.699.698 7.19 7.343 11.897 10.021l3.909 2.224 9.347-10.653c5.141-5.86 9.834-11.307 10.429-12.105.901-1.208 2.163-.579 7.5 3.736 6.025 4.87 20.412 12.914 21.375 11.951.24-.241-2.045-2.358-5.078-4.704-3.033-2.347-5.351-4.757-5.152-5.355.2-.599 7.253-3.455 15.674-6.348l15.311-5.259 5.146 4.644c9.426 8.506 21.268 16.145 25.03 16.145.807 0 2.57-1.409 3.918-3.132l2.451-3.131 4.431 3.049 4.432 3.049 4.857-3.023c4.739-2.95 4.938-2.984 8.224-1.418 1.852.883 3.948 1.606 4.659 1.606 1.784 0 5.984-4.635 5.26-5.806-.547-.884-50.513-27.951-60.62-32.837-5.922-2.863-12.449-3.596-18-2.021m-44.961 50.853c-2.222 2.79-4.039 5.408-4.039 5.818 0 2.596 17.211 7.031 26.934 6.941l5.566-.051-4-1.627c-2.2-.895-5.8-2.785-8-4.199l-4-2.571 4.5-.5 4.5-.5-8.711-4.192-8.712-4.191-4.038 5.072m123.293 4.561c-4.456 5.363-7.671 9.911-7.144 10.108 1.417.529 9.758-2.826 14.055-5.652 2.833-1.864 4.068-2.193 5.079-1.354 3.31 2.747 31.093 11.066 32.444 9.715.182-.182-2.729-2.008-6.468-4.057-3.739-2.05-11.8-7.054-17.913-11.119-6.113-4.065-11.303-7.391-11.533-7.391-.229 0-4.063 4.387-8.52 9.75M197.5 175.62c-2.75 1.93-8.337 5.362-12.415 7.625l-7.414 4.117 3.227 2.694c8.283 6.915 19.827 10.944 31.354 10.944h6.832l-4.042-3.845c-4.225-4.019-5.416-6.946-2.292-5.634 11.283 4.738 20.894 6.538 26.883 5.035 2.662-.668 2.397-.887-4.145-3.438-8.09-3.153-16.216-8.133-25.685-15.739-3.683-2.958-6.833-5.354-7-5.324-.166.03-2.553 1.635-5.303 3.565m99.5 24.045c-11.406 1.789-25.564 5.249-38.793 9.479-17.679 5.653-33.493 9.163-49.707 11.036-12.231 1.412-56.702 1.752-68.75.526l-7.75-.789v33.041c0 28.704.197 33.042 1.5 33.042.825 0 1.5-.45 1.5-1s-.45-1-1-1-1-.498-1-1.107.662-.853 1.472-.542c1.789.686 7.48-1.101 9.492-2.982 1.27-1.187 1.163-1.369-.799-1.369-1.246 0-3.704-.788-5.465-1.75l-3.2-1.75 4.5-.282c6.415-.402 7.418-.852 5.801-2.601-.716-.774-1.642-1.201-2.058-.949-.416.252-1.016-.216-1.333-1.041-.328-.856-1.292-1.273-2.243-.97-1.314.419-1.376.324-.289-.451.758-.54 1.111-1.415.784-1.944-.364-.588 1.433-.798 4.622-.54 3.692.299 4.792.128 3.764-.584-.799-.553-1.836-.769-2.304-.48-.91.563-7.726-3.699-7.737-4.838-.004-.374 1.453-.262 3.236.25 5.169 1.482 6.244 1.101 3.339-1.184-3.039-2.391-2.827-3.623.332-1.932 1.147.614 2.086.887 2.086.607s-1.335-1.2-2.966-2.043c-1.962-1.015-2.768-2.047-2.383-3.051.456-1.188.891-1.262 1.998-.344 1.196.994 1.255.756.383-1.539-1.309-3.442-1.296-3.637.218-3.334.688.138 1.138-.312 1-1-.137-.687.11-1.25.55-1.25.44 0 1.395.563 2.122 1.25 1.09 1.03 1.126.866.2-.934-1.508-2.936-1.419-3.367.542-2.615.915.352 1.418.225 1.117-.281-.3-.506-.126-2.034.388-3.396 1.222-3.241 2.596-1.184 2.361 3.535-.163 3.254-.079 3.343 1.649 1.779 1.702-1.54 1.821-1.52 1.821.307 0 1.075-.562 2.561-1.25 3.302-1 1.077-1 1.205 0 .641 1.961-1.108 1.466.554-.924 3.098L151.651 254h2.74c1.507 0 3.611-.466 4.675-1.035 2.898-1.552 2.482.816-.566 3.214-4.519 3.554-1.913 5.448 3.035 2.206 2.739-1.794 3.345-.408.894 2.044-.865.864-1.202 1.578-.75 1.586.451.009.146.498-.679 1.087-1.205.861-1.058.975.75.578 2.838-.622 2.847.068.032 2.509-1.866 1.619-1.985 2.071-.75 2.852 1.191.753 1.091.937-.532.974-1.947.045-1.95.075-.089 1.155 1.407.817 2.393.809 3.737-.03 2.222-1.388 2.852-1.43 2.852-.192 0 1.671-4.668 6.052-6.448 6.052-3.933 0-.536 2.523 3.776 2.805 2.57.167 4.672.63 4.672 1.028 0 1.147-3.769 4.065-4.415 3.418-.322-.321-.585-.15-.585.382 0 .531-1.575.782-3.5.557-1.925-.225-3.5-.81-3.5-1.299 0-.49-.477-.891-1.059-.891-1.908 0 .118 1.989 4.087 4.014 2.141 1.092 5.287 1.986 6.991 1.986 1.705 0 2.851.401 2.549.89-1.023 1.655 6.157 2.23 9.611.769l3.321-1.405-2.75-.735c-3.685-.986-3.497-2.519.309-2.519 3.456 0 3.11-1.954-.368-2.079-1.205-.043-1.626-.307-.935-.585.691-.279.972-.967.625-1.529-.402-.649.233-.778 1.744-.351l2.375.669-2.5-2.04c-2.041-1.666-2.178-2.045-.75-2.063 2.03-.026 2.127-.448.715-3.088-.743-1.387-.713-1.934.107-1.934.628 0 .883-.675.566-1.5-.511-1.333.458-1.946 2.576-1.63.393.058.457-.564.143-1.382-.314-.818-.106-1.488.463-1.488.568 0 1.239-.788 1.491-1.75.344-1.317.486-1.193.573.5.07 1.361.757 2.25 1.738 2.25 1.329 0 1.398.271.378 1.5-.685.825-.91 1.5-.5 1.5.41 0 .185.675-.5 1.5-1.056 1.272-.823 1.5 1.533 1.5 2.714 0 2.736.046.967 2-2.043 2.258-1.405 2.552 1.816.836 1.888-1.006 2.018-.962.958.324-.92 1.116-.941 1.773-.083 2.631.858.858.743 1.297-.461 1.759-2.288.878-.963 3.659 1.388 2.912 1.035-.328 1.882-.309 1.882.042 0 1.06-2.778 3.496-3.988 3.496-.621 0-.852.45-.512 1 .34.55 1.772 1 3.181 1 3.257 0 1.326 2.931-2.053 3.118-2.836.156 5.146 1.443 13.872 2.235 6.323.574 6.761.501 4.532-.761l-2.468-1.396 2.468-.462c2.09-.391 1.979-.482-.723-.598-3.249-.138-5.816-2.136-2.746-2.136 1.454 0 1.496-.229.309-1.692-.838-1.034-.903-1.41-.166-.968.663.398 2.913-.005 5-.895l3.794-1.619-3.425-1.163c-5.156-1.751-5.11-3.647.092-3.742 2.383-.043 3.768-.307 3.077-.585-.691-.279-1.002-.918-.691-1.421.311-.503-.137-.915-.994-.915s-1.566-.562-1.574-1.25c-.011-.889-.273-.844-.904.153-.643 1.015-.846.707-.735-1.114.136-2.231.409-2.401 2.395-1.497 1.584.721 2.905.674 4.5-.161l2.259-1.183-2.291.443c-1.459.282-3.274-.418-5-1.928l-2.709-2.371 4 .603 4 .603-2.5-2.233c-2.141-1.912-2.213-2.148-.5-1.646 1.861.545 1.879.491.25-.777-1.961-1.527-2.335-3.642-.643-3.642.609 0 .848-.675.531-1.5-.316-.825-.139-1.5.393-1.5.533 0 .969-.73.969-1.622 0-1.399.234-1.433 1.692-.25 1.073.87 1.424.926.959.151-.403-.671-.057-2.526.768-4.123.826-1.596 1.298-3.188 1.049-3.538-.248-.349-.02-.286.507.14s1.067 2.207 1.2 3.957c.189 2.474.53 2.945 1.534 2.112 1.737-1.442 1.772 1.254.041 3.12-1 1.077-1 1.205 0 .641 1.783-1.007 1.55.918-.297 2.451-2.177 1.806.124 3.072 3.352 1.845 3.6-1.369 3.7-.487.272 2.398-2.5 2.103-2.732 2.636-1.375 3.157.898.345 2.097.162 2.665-.406.568-.568 1.73-1.019 2.583-1.001 1.373.028 1.379.171.05 1.253-2.025 1.65-2.365 3.792-.488 3.072 2.202-.845 1.806.557-.762 2.699-1.628 1.358-1.835 1.891-.75 1.926 1.333.043 1.333.167 0 1.116-1.133.807-.592.942 2.216.553 3.525-.488 3.653-.409 2.5 1.537-.669 1.127-2.566 2.637-4.216 3.353l-3 1.304 2.815 1.077c1.548.593 3.798 1.088 5 1.1 2.144.022 2.138.06-.315 2.019-1.384 1.105-3.505 1.827-4.75 1.616-1.238-.209-2.25-.064-2.25.321 0 1.085 4.817 3.022 7.516 3.022 1.64 0 2.252.442 1.895 1.371-.773 2.014 2.07 2.793 11.589 3.176 5.551.223 9.541-.115 11.5-.976l3-1.318-2.75-.735c-3.685-.985-3.497-2.518.309-2.518 3.456 0 3.11-1.954-.368-2.079-1.205-.043-1.626-.307-.935-.585.691-.279.955-.995.586-1.591-.426-.69-.065-.853.994-.446 2.177.835 2.13-.225-.086-1.907-1.645-1.249-1.647-1.33-.025-1.36 1.425-.026 1.56-.467.775-2.532-.634-1.668-.606-2.5.084-2.5.569 0 .83-.337.58-.75-.616-1.018 1.954-3.299 2.782-2.47.363.362.363-.115 0-1.06-.363-.946-.195-1.72.374-1.72.568 0 1.239-.788 1.491-1.75.275-1.053.503-.631.573 1.059.064 1.545.528 2.555 1.031 2.244 1.632-1.009 1.868 1.896.3 3.697-1.406 1.613-1.305 1.75 1.285 1.75 2.797 0 2.801.01.905 2.133-1.888 2.114-1.885 2.127.339 1.435 1.777-.554 2.119-.374 1.643.867-.361.941-.06 1.578.756 1.597 1.069.025 1.038.291-.143 1.253-2.643 2.154-2.383 4.028.461 3.314 1.474-.37 2.539-.21 2.539.382 0 .56.477 1.019 1.059 1.019s.811-.401.509-.89c-.303-.49 1.133-1.207 3.191-1.594l3.741-.703-3.5-1.865-3.5-1.864 4-.095c3.931-.092 3.961-.121 1.75-1.663-2.1-1.466-3.333-4.114-1.342-2.883.499.308 1.961.139 3.25-.378l2.342-.938-2.628-.064c-1.445-.034-3.121-.658-3.725-1.386-.88-1.06-.456-1.258 2.127-.993 2.633.27 2.858.159 1.226-.606-1.266-.594-1.471-.963-.559-1.008 1.046-.051.909-.459-.498-1.488-1.067-.78-1.603-1.755-1.191-2.167.411-.412.748-.223.748.418 0 .642.459 1.167 1.02 1.167.56 0 .813-1.134.562-2.52-.251-1.387-.082-2.289.376-2.006.458.283 1.09-.158 1.406-.98.315-.822 1.064-1.494 1.664-1.494.599 0 .765.526.367 1.17-.498.805-.16.954 1.082.477 1.527-.586 1.61-.457.542.83-.695.838-.929 1.523-.519 1.523.41 0 .129.742-.624 1.65-1.234 1.486-1.047 1.602 1.891 1.171l3.26-.479-2.264 2.47-2.263 2.47 2.925-.704c2.574-.619 2.769-.516 1.627.859-1.011 1.219-1.023 1.563-.052 1.563.993 0 .993.303 0 1.5-.685.825-.852 1.507-.372 1.515.479.009.197.495-.628 1.081-1.155.821-.868.928 1.25.466 3.456-.754 3.653 1.07.281 2.606-3.011 1.372-2.366 2.832 1.251 2.832h2.663l-2.205 1.545c-1.687 1.181-2.68 1.29-4.223.464-1.109-.594-2.017-.776-2.017-.404 0 1.43 3.635 3.335 6.5 3.405l3 .074-3.5 1.879c-3.192 1.714-3.324 1.952-1.5 2.708 3.635 1.507 17.72.962 21.5-.831 1.925-.914 4.175-1.891 5-2.171 1.05-.358.9-.539-.5-.605-1.664-.079-1.748-.257-.5-1.064 1.216-.786 1.081-.972-.719-.985-2.817-.019-2.05-2.56 1.038-3.438 2.171-.617 2.169-.627-.319-2.063l-2.5-1.443 2.905-.036c2.841-.034 2.865-.079 1.095-2.035-1.77-1.956-1.746-2.002 1.095-2.079 1.598-.043 2.23-.304 1.405-.579-4.498-1.5-4.525-1.533-2.094-2.468 2.144-.824 2.231-1.058.794-2.15-1.46-1.108-1.38-1.602.839-5.224 2.075-3.386 2.452-3.646 2.456-1.691.003 1.27.415 2.055.917 1.745 1.055-.651.898 1.36-.249 3.196-.497.795-.225 1.25.747 1.25.995 0 1.311.563.907 1.615-.5 1.304-.18 1.476 1.657.893 1.772-.562 2.088-.421 1.427.635-1.924 3.071-1.621 6.148.549 5.58 1.231-.322 1.805-.135 1.433.466-.356.577.175.831 1.249.598 1.027-.223 1.777-.877 1.666-1.452-.111-.576 1.557-1.574 3.708-2.219 5.211-1.561 5.723-2.757 1.52-3.545-4.052-.76-5.682-2.565-2.335-2.585 4.748-.028 6.877-1.061 5.345-2.593-.766-.766-1.902-1.393-2.524-1.393-.621 0-.852-.45-.512-1 .34-.55.141-1-.441-1s-1.059-.349-1.059-.776c0-.427 1.747-.61 3.883-.407 2.136.204 4.128-.026 4.428-.511.3-.485-.647-.98-2.105-1.101-4.328-.358-6.478-3.205-2.42-3.205 3.963 0 4.124-1.652.464-4.762-2.737-2.326-2.738-2.334-.299-1.656 2.432.675 2.438.661.747-1.921-1.422-2.169-1.453-2.504-.19-2.02 1.142.439 1.343.124.816-1.28-.638-1.699-.536-1.73 1.162-.361 1.722 1.388 1.817 1.332 1.281-.751-.319-1.239-.172-2 .326-1.691.499.308.907-.682.907-2.199 0-2.044.292-2.467 1.125-1.634.619.619 1.125 2.292 1.125 3.719 0 2.087.268 2.371 1.375 1.452 1.688-1.401 1.839.24.175 1.904-.933.933-.899 1.2.155 1.2.987 0 .862.545-.461 2.006-2.454 2.712-1.248 3.561 3.145 2.213l3.637-1.116-2.815 2.938c-3.191 3.33-2.693 4.841 1.035 3.143 1.522-.694 2.504-.757 2.504-.163 0 .539-.45.979-1 .979s-1 .723-1 1.607c0 1.111.533 1.403 1.726.944 1.255-.481 1.071.036-.674 1.893-1.657 1.764-1.959 2.561-.976 2.571 1.2.013 1.192.162-.047.946-2.334 1.476-.301 2.484 2.467 1.223 1.377-.628 2.504-.786 2.504-.351 0 1.442-4.053 5.167-5.622 5.167-3.511 0-.38 2.539 3.7 3 4.701.532 4.315 1.453-1.283 3.059-2.105.603-3.585.53-4.491-.222-.744-.617-1.592-.882-1.886-.589-1.115 1.115 6.096 5.152 9.203 5.152 3.874 0 3.506.974-1.301 3.44l-3.55 1.822 9.405 2.669c10.366 2.941 19.709 3.655 16.559 1.265-1.614-1.224-1.484-1.407 1.5-2.119 3.097-.739 3.137-.804.766-1.253-2.332-.441-2.365-.527-.5-1.278 1.706-.687 1.56-.827-1-.955-1.65-.082-2.435-.377-1.744-.655.691-.279 1.029-.875.751-1.324-.277-.449.957-1.341 2.744-1.98l3.249-1.164-3-1.353c-2.465-1.111-2.628-1.367-.917-1.434 3.262-.127 3.713-1.346 1.212-3.27l-2.295-1.767 3.5-.138c2.144-.084 2.725-.324 1.5-.619-3.237-.779-4.186-2.285-1.45-2.302 1.846-.012 2.099-.238 1.024-.918-.784-.496-1.573-1.867-1.753-3.046-.219-1.436.06-1.904.846-1.418.785.486.966.186.547-.907-.345-.898-.127-1.941.484-2.318.72-.445.826-.226.302.622-.551.892-.42 1.068.414.553.672-.415.972-1.408.666-2.206-.307-.798-.144-1.196.36-.884.504.312 1.113-.453 1.352-1.698.369-1.92.456-1.837.572.544.077 1.598.569 2.542 1.139 2.189 1.159-.716.861 2.326-.431 4.397-.685 1.1-.301 1.286 1.815.882 2.569-.491 2.611-.433.988 1.361-2.174 2.402-1.221 3.372 1.789 1.821 1.931-.995 2.119-.974 1.086.119-.687.727-1.25 1.709-1.25 2.181s.563.53 1.25.128c.688-.402.462.169-.5 1.27-2.411 2.756-2.192 3.661.75 3.098 3.131-.598 3.117-.408-.194 2.662-2.899 2.688-1.471 4.551 2.444 3.188 1.407-.49 1.358-.304-.25.951-1.1.858-3.012 1.372-4.25 1.141-3.532-.659-2.631 1.036 1.307 2.46 3.299 1.193 3.426 1.387 1.75 2.676-1.621 1.247-1.446 1.333 1.693.829a517.13 517.13 0 0 1 8.25-1.225c2.613-.365 4.75-1.021 4.75-1.457 0-.436-.9-.557-2-.27-1.118.293-2 .031-2-.593 0-.615.788-1.137 1.75-1.162.962-.025 3.1-.694 4.75-1.488l3-1.442-3.5.585c-3.376.564-3.429.525-1.5-1.084 1.943-1.622 1.914-1.655-1.047-1.163-1.676.278-3.701.092-4.5-.413-1.167-.739-1.06-.925.547-.95 1.659-.025 1.744-.196.5-1-1.184-.765-.96-.973 1.059-.985 1.407-.008 3.407-.635 4.443-1.393 1.769-1.293 1.688-1.421-1.317-2.081-1.761-.387-2.959-1.097-2.662-1.579.298-.481 1.174-.632 1.948-.335s2.184.106 3.133-.425c1.525-.854 1.387-1.149-1.189-2.544-1.603-.868-2.578-1.652-2.165-1.743.413-.091 1.2-.278 1.75-.415.55-.137 1.9-.306 3-.375s2-.602 2-1.184-.337-.864-.75-.625c-.413.238-1.65.072-2.75-.371-1.544-.621-1.625-.82-.357-.875 1.899-.081 3.23-2.722 1.813-3.597-.526-.325-.956-1.041-.956-1.591s.52-.679 1.155-.287c.713.442.883.275.443-.437-1.58-2.556-1.504-5.059.135-4.43.985.378 1.344.205.938-.452-.403-.651.281-1.008 1.764-.92 2.243.133 2.305.273.832 1.9-.873.966-1.291 2.054-.928 2.417.364.363.661.06.661-.673 0-.733.289-1.044.643-.691.353.354.073 1.329-.623 2.167-1.332 1.605-.479 2.047 2.976 1.542 1.133-.165 1.011.328-.5 2.034l-1.996 2.253 3.308-.639c3.059-.591 3.185-.517 1.676.993-1.172 1.171-1.305 1.833-.474 2.347.811.501.688.896-.409 1.317-2.674 1.026-.721 3.933 2.26 3.363 2.448-.468 2.403-.349-.892 2.368l-3.469 2.86 3.234.665c4.255.875 3.002 2.802-1.361 2.094-1.855-.301-3.373-.223-3.373.174 0 1.085 5.546 4.143 7.654 4.221 1.572.057 1.512.228-.404 1.152-2.268 1.094-3.058 2.78-1.302 2.78.521 0 4.796-1.393 9.5-3.095l8.552-3.094V239.95l-2.295-.872c-12.671-4.817-41.55-6.655-56.136-3.572-8.638 1.826-9.148 1.413-2.358-1.908 14.961-7.32 35.624-6.953 53.494.95 7.612 3.366 7.405 3.565 7.083-6.777l-.288-9.229-5-.842c-19.3-3.251-82.78-4.676-98.5-2.212l-4.5.706 3-2.622c1.65-1.443 5.179-3.911 7.843-5.486l4.844-2.863-4.879-1.621c-11.62-3.859-41.157-6.001-54.308-3.937m-38 21.242c-6.473 1.78-14 4.66-14 5.357 0 .202 3.488-.26 7.75-1.026 9.218-1.655 29.354-1.053 39.25 1.174 21.471 4.832 26.059 5.553 35 5.502 12.822-.074 16.009-1.442 4.982-2.14-5.197-.329-13.643-1.962-21.806-4.218-25.265-6.98-38.368-8.17-51.176-4.649m-52 12.819c-4.461.897-13.678 1.562-22.748 1.641-8.387.073-15.249.409-15.25.746-.001.337 2.586 1.434 5.748 2.437 10.977 3.481 27.997 1.743 38.994-3.981 5.463-2.844 4.066-3.019-6.744-.843m65.301 2.19c-7.757 2.219-15.549 5.17-15.028 5.69.217.217 4.857-.278 10.311-1.1 10.436-1.573 18.653-1.936 19.717-.872.348.349-.252 1.759-1.334 3.135-9.179 11.67 12.629 15.074 38.007 5.932 10.157-3.659 9.329-4.359-2.626-2.219-11.274 2.017-28.391 2.96-30.269 1.667-1.214-.836-1.177-1.35.25-3.528 5.719-8.729-3.771-13.07-19.028-8.705M225.5 289c.34.55.816 1 1.059 1s.441-.45.441-1-.477-1-1.059-1-.781.45-.441 1m48.266 4.377c-2.313 1.761-1.231 2.623 3.294 2.623 3.587 0 6.494-2.496 3.076-2.641-.9-.039-2.311-.347-3.136-.686-.825-.339-2.281-.022-3.234.704m9.047 2.306c.721.289 1.584.253 1.916-.079.332-.332-.258-.568-1.312-.525-1.165.048-1.402.285-.604.604m-20.717 12.582c-4.403 2.263-6.314 6.052-6.854 13.59-.5 7-.52 7.04-3.623 7.431l-3.119.394 3.118.16 3.119.16.47 7.25c.262 4.032 1.237 8.727 2.198 10.579 4.322 8.327 18.029 7.868 22.304-.748 2.576-5.191 2.585-29.081.014-33.814-3.06-5.631-11.656-8.071-17.627-5.002m83.145.06c-8.455 4.696-7.671 14.779 1.841 23.675 6.856 6.412 9.12 11.241 6.485 13.836-2.157 2.125-4.567-.564-4.567-5.095 0-2.26-.375-2.77-1.75-2.383-.962.271-3.16.775-4.883 1.121-2.937.589-3.087.829-2.406 3.848 2.086 9.249 8.896 12.849 17.505 9.252 9.359-3.911 8.425-14.503-2.218-25.146-5.588-5.588-6.34-6.785-6.063-9.656.455-4.728 4.177-4.709 4.632.024l.317 3.301 4.683-.679c5.895-.855 5.732-.647 4.289-5.464-2.032-6.783-11.36-10.246-17.865-6.634m67.509-.636c-1.601.419-1.75 2.366-1.75 22.884V353h19v-3.5c0-3.481-.024-3.5-4.5-3.5H421V333.127l3.25-.314c2.875-.277 3.25-.659 3.25-3.313s-.375-3.036-3.25-3.313l-3.25-.314V314h4.5c4.476 0 4.5-.019 4.5-3.5V307l-7.75.116c-4.262.064-8.538.322-9.5.573M151 330.5V353h18v-3c0-2.889-.167-3-4.5-3H160v-39h-9v22.5m21 0V353h9v-45h-9v22.5m13.062-20.25c.034 1.238 1.753 11.25 3.82 22.25l3.758 20 4.18.307c2.299.17 4.18.138 4.18-.07 0-.521 7.841-39.698 8.504-42.487.492-2.071.187-2.25-3.831-2.25h-4.366l-1.866 12.5c-1.027 6.875-2.144 12.5-2.481 12.5-.338 0-1.182-4.387-1.876-9.75-2.072-16.009-1.763-15.25-6.209-15.25-3.37 0-3.867.293-3.813 2.25M213 330.5V353h19v-3c0-2.933-.111-3-5-3h-5v-14h3.5c1.925 0 3.5-.421 3.5-.937 0-.515 1.463-1.118 3.25-1.34l3.25-.403-3.25-.16c-2.53-.125-3.25-.603-3.25-2.16 0-1.619-.667-2-3.5-2H222v-12h5c4.889 0 5-.067 5-3v-3h-19v22.5m73.176-4.25c.415 20.654 1.292 23.794 7.358 26.329 6.773 2.829 14.143.785 17.128-4.75 1.493-2.768 1.857-6.403 2.162-21.579l.367-18.25h-10.147l-.272 18.642c-.239 16.408-.479 18.773-2.003 19.733-4.241 2.672-5.242-.977-5.6-20.409L294.838 308h-9.029l.367 18.25m29.011-15c.275 2.858.705 3.288 3.563 3.563l3.25.314V353h9V315.127l3.25-.314c2.858-.275 3.288-.705 3.563-3.563l.314-3.25h-23.254l.314 3.25M367 330.5V353h9v-45h-9v22.5m15 .099v22.6l9.083-.35c14.305-.55 16.804-4.99 15.701-27.895-.718-14.905-2.754-16.954-16.849-16.954H382v22.599m-116.839-14.052c-2.094 4.594-1.517 25.797.776 28.592 1.578 1.922 2.275 2.155 3.75 1.254 2.23-1.362 3.296-28.503 1.219-31.007-1.802-2.17-4.473-1.631-5.745 1.161M392 330.102v16.037l2.25-.319c2.218-.315 2.25-.53 2.25-15.205 0-14.524-.055-14.906-2.25-15.718l-2.25-.833v16.038m-143.076-6.352-2.424 2.75 2.75-2.424c2.57-2.266 3.209-3.076 2.424-3.076-.179 0-1.416 1.238-2.75 2.75M234.5 324c.995 1.1 2.035 2 2.31 2 .275 0-.315-.9-1.31-2-.995-1.1-2.035-2-2.31-2-.275 0 .315.9 1.31 2m5.75 2.086c-4.775 1.803-1.773 8.764 3.237 7.507 1.973-.495 2.513-1.265 2.513-3.577 0-3.483-2.468-5.169-5.75-3.93M249 335.5c1.292 1.375 2.574 2.5 2.849 2.5.275 0-.557-1.125-1.849-2.5-1.292-1.375-2.574-2.5-2.849-2.5-.275 0 .557 1.125 1.849 2.5m-14.595.75-1.905 2.25 2.25-1.905c1.238-1.048 2.25-2.06 2.25-2.25 0-.8-.805-.209-2.595 1.905M126 338.253c-8.151 4.256-5.147 16.202 4.075 16.202 5.327 0 8.38-3.08 8.38-8.455 0-6.642-6.649-10.777-12.455-7.747m315.455 1.202C435.649 345.26 439.75 355 448 355c5.629 0 9-3.371 9-9 0-8.25-9.74-12.351-15.545-6.545M210 373.057c0 7.442 4.928 13.014 6.869 7.767l.806-2.177.569 2.177c1.381 5.283 5.756.745 5.756-5.972 0-4.139-2.342-3.194-3.041 1.227-.491 3.096-.616 3.207-1.318 1.171-.992-2.877-3.465-2.899-4.523-.041-.73 1.974-.891 1.815-1.513-1.5-.625-3.332-3.605-5.524-3.605-2.652m20 4.443c0 4.222.348 5.5 1.5 5.5.833 0 1.5-.889 1.5-2 0-1.1.623-2 1.383-2 .761 0 1.619.9 1.907 2 1.068 4.084 2.71 1.963 2.71-3.5 0-4.222-.348-5.5-1.5-5.5-.833 0-1.5.889-1.5 2 0 1.1-.623 2-1.383 2-.761 0-1.619-.9-1.907-2-1.068-4.084-2.71-1.963-2.71 3.5m15.607-3.918c-2.009 5.234-.232 9.418 4 9.418 1.866 0 3.393-.45 3.393-1s-.873-1-1.941-1c-2.816 0-3.497-1.799-.824-2.179 2.869-.407 2.577-2.192-.445-2.724l-2.29-.402 2.426-.625c1.334-.344 2.609-1.175 2.833-1.848.644-1.93-6.409-1.575-7.152.36M259 377.5c0 4.222.348 5.5 1.5 5.5.873 0 1.522-.94 1.552-2.25l.053-2.25 1.569 2.25c.864 1.238 2.19 2.25 2.948 2.25 1.652 0 1.784-1.194.296-2.682-.776-.776-.723-1.658.19-3.119 1.783-2.856-.348-5.199-4.73-5.199H259v5.5m14.607-3.918c-2.009 5.234-.232 9.418 4 9.418 1.866 0 3.393-.45 3.393-1s-.873-1-1.941-1c-2.772 0-3.515-1.794-.902-2.179 3.365-.494 3.505-2.804.176-2.921-2.742-.096-2.755-.121-.407-.777 1.334-.373 2.609-1.228 2.833-1.901.644-1.93-6.409-1.575-7.152.36M294 377.5c0 4.222.348 5.5 1.5 5.5.833 0 1.5-.889 1.5-2 0-1.333.667-2 2-2s2 .667 2 2c0 1.111.667 2 1.5 2 1.152 0 1.5-1.278 1.5-5.5 0-4.222-.348-5.5-1.5-5.5-.833 0-1.5.889-1.5 2 0 1.333-.667 2-2 2s-2-.667-2-2c0-1.111-.667-2-1.5-2-1.152 0-1.5 1.278-1.5 5.5m16-1.2c0 4.996 1.313 6.7 5.165 6.7 3.334 0 5.085-2.748 4.645-7.288-.509-5.25-3.614-4.88-3.999.476-.4 5.552-2.218 5.595-2.618.062-.434-5.988-3.193-5.945-3.193.05m15.63-2.05c-1.157 4.317-.716 8.75.87 8.75 1.012 0 1.522-1.058 1.568-3.25.064-3.065.129-3.122 1.152-1 1.16 2.405 3.735 3.074 3.848 1 .037-.687.556-.238 1.152 1 2.079 4.309 4.087 2.786 3.296-2.5-1.052-7.028-3.799-8.954-5.142-3.603l-.664 2.646-1.387-2.646c-1.697-3.239-3.882-3.424-4.693-.397m19.272.5c-2.095 5.499-2.271 8.25-.527 8.25.894 0 1.625-.45 1.625-1s.9-1 2-1 2 .45 2 1 .711 1 1.579 1c1.631 0 1.374-3.295-.682-8.75-1.212-3.217-4.689-2.927-5.995.5m13.5-1.355c-1.142 2.975.056 9.08 1.848 9.42 1.255.238 1.75-.318 1.75-1.964v-2.296l1.557 2.222c2.813 4.017 4.443 2.815 4.443-3.277 0-4.222-.348-5.5-1.5-5.5-.96 0-1.514.99-1.54 2.75l-.04 2.75-1.492-2.75c-1.599-2.947-4.151-3.635-5.026-1.355M262 375.5c0 .917.484 1.505 1.075 1.308.591-.197 1.075-.786 1.075-1.308s-.484-1.111-1.075-1.308c-.591-.197-1.075.391-1.075 1.308m85 1.5c0 .55.477 1 1.059 1s.781-.45.441-1-.816-1-1.059-1-.441.45-.441 1m-137.359 28.603c-.347 2.532-.382 5.007-.077 5.5 1.192 1.929 2.436.741 2.436-2.326v-3.222l1.648 2.352 1.647 2.353 1.83-2.38 1.831-2.38.022 3.25c.015 2.224.499 3.25 1.534 3.25 1.423 0 1.39-5.031-.064-9.75-.698-2.265-3.218-1.302-3.926 1.5l-.694 2.75-1.446-2.75c-2.185-4.155-4.016-3.439-4.741 1.853m17.966-3.021c-2.009 5.234-.232 9.418 4 9.418 1.866 0 3.393-.45 3.393-1s-.873-1-1.941-1c-2.816 0-3.497-1.799-.824-2.179 2.765-.392 2.621-2.199-.21-2.642-2.512-.394-1.664-2.179 1.034-2.179 1.068 0 1.941-.45 1.941-1 0-1.703-6.719-1.174-7.393.582m13.795-.187c-.294.767-.393 3.129-.219 5.25.302 3.667.5 3.87 4.067 4.165 2.171.18 3.75-.136 3.75-.75 0-.583-1.125-1.06-2.5-1.06s-2.5-.45-2.5-1 .9-1 2-1c2.798 0 2.556-2.98-.25-3.079-2.041-.072-1.995-.172.5-1.083 1.512-.553 2.75-1.417 2.75-1.921 0-1.509-7.005-1.068-7.598.478M254 402.5c0 .825.675 1.5 1.5 1.5 1.083 0 1.5 1.111 1.5 4 0 2.889.417 4 1.5 4 1.076 0 1.5-1.099 1.5-3.893 0-2.538.522-4.093 1.5-4.469 3.041-1.167 1.368-2.638-3-2.638-3.333 0-4.5.389-4.5 1.5m14.667-.833c-1.487 1.486-.518 4.444 1.802 5.501 2.818 1.284 2.352 3.227-.553 2.305-1.352-.429-1.916-.129-1.916 1.02 0 1.269.825 1.559 3.75 1.317 4.808-.398 5.933-4.086 1.818-5.961-3.02-1.376-3.479-3.273-.568-2.349 1.419.45 2 .18 2-.933 0-1.591-4.94-2.294-6.333-.9M289 406.5c0 4.222.348 5.5 1.5 5.5.96 0 1.514-.99 1.54-2.75l.04-2.75 1.524 2.811c2.462 4.542 4.896 3.18 4.896-2.741 0-3.034-.477-5.062-1.25-5.32-.833-.278-1.251.696-1.254 2.917l-.003 3.333-1.982-3.25c-3.13-5.134-5.011-4.29-5.011 2.25m16.902-2.75c-2.095 5.499-2.271 8.25-.527 8.25.894 0 1.625-.45 1.625-1s.9-1 2-1 2 .45 2 1 .711 1 1.579 1c1.631 0 1.374-3.295-.682-8.75-1.212-3.217-4.689-2.927-5.995.5M319 402.5c0 .825.675 1.5 1.5 1.5 1.083 0 1.5 1.111 1.5 4 0 2.889.417 4 1.5 4 1.076 0 1.5-1.099 1.5-3.893 0-2.538.522-4.093 1.5-4.469 3.041-1.167 1.368-2.638-3-2.638-3.333 0-4.5.389-4.5 1.5m14 2.8c0 4.996 1.313 6.7 5.165 6.7 3.334 0 5.085-2.748 4.645-7.288-.509-5.25-3.614-4.88-3.999.476-.4 5.552-2.218 5.595-2.618.062-.434-5.988-3.193-5.945-3.193.05m16 1.2c0 4.222.348 5.5 1.5 5.5.825 0 1.5-.745 1.5-1.655 0-1.54.127-1.54 1.829 0 2.987 2.704 5.843 1.727 3.067-1.049-.765-.765-.791-1.662-.084-2.924 1.643-2.937-.327-5.372-4.347-5.372H349v5.5m14.402-4.105c-.294.767-.393 3.129-.219 5.25.302 3.667.5 3.87 4.067 4.165 2.864.237 3.75-.058 3.75-1.25 0-1.011-.968-1.595-2.75-1.66-2.585-.093-2.611-.138-.441-.75 2.955-.832 2.944-2.532-.019-3.053l-2.29-.402 2.426-.625c1.334-.344 2.609-1.175 2.833-1.848.595-1.783-6.672-1.613-7.357.173M352 404.441c0 .857.45 1.559 1 1.559s1-.423 1-.941-.45-1.219-1-1.559c-.55-.34-1 .084-1 .941M308 406c0 .55.477 1 1.059 1s.781-.45.441-1-.816-1-1.059-1-.441.45-.441 1" fill-rule="evenodd"/></svg>