<?xml version="1.0" encoding="utf-8"?>
<!-- Generator: Adobe Illustrator 25.2.1, SVG Export Plug-In . SVG Version: 6.00 Build 0)  -->
<svg version="1.1" id="Layer_1" xmlns="http://www.w3.org/2000/svg" xmlns:xlink="http://www.w3.org/1999/xlink" x="0px" y="0px"
	 viewBox="0 0 32.4 36" style="enable-background:new 0 0 32.4 36;" xml:space="preserve">
<style type="text/css">
	.st0{fill:none;stroke:#231F20;stroke-miterlimit:10;}
	.st1{fill:none;stroke:#231F20;stroke-width:0.75;stroke-miterlimit:10;}
	.st2{fill:none;stroke:#414042;stroke-width:0.5;stroke-miterlimit:10;}
	.st3{fill:none;stroke:#231F20;stroke-width:0.5;stroke-miterlimit:10;}
	.st4{fill:none;stroke:#F78F1E;stroke-width:0.25;stroke-miterlimit:10;}
</style>
<g>
	<path class="st2" d="M8,12.8c0,0,0.04,0.9,0.08,2.34c0.12,4.49-1.27,17.05-1.27,17.05h9.26"/>
	<path class="st2" d="M8.09,15.14l-1.27,1.47l-4.52-2.49l3.16-5.89C5.88,7.44,6.57,6.84,7.4,6.53l4.04-1.5c0,0,3.92-1.32,9.26,0
		l4.04,1.5c0.83,0.31,1.52,0.91,1.94,1.69l3.16,5.89l-4.52,2.49l-1.27-1.47"/>
	<path class="st2" d="M24.14,12.8c0,0-0.04,0.9-0.08,2.34c-0.12,4.49,1.27,17.05,1.27,17.05h-9.26"/>
	<path class="st2" d="M11.44,5.03c0,0,4.35,4.4,9.26,0"/>
</g>
</svg>
