<?xml version="1.0" encoding="utf-8"?>
<!-- Generator: Adobe Illustrator 25.2.1, SVG Export Plug-In . SVG Version: 6.00 Build 0)  -->
<svg version="1.1" id="Layer_1" xmlns="http://www.w3.org/2000/svg" xmlns:xlink="http://www.w3.org/1999/xlink" x="0px" y="0px"
	 viewBox="0 0 32.4 36" style="enable-background:new 0 0 32.4 36;" xml:space="preserve">
<style type="text/css">
	.st0{fill:none;stroke:#231F20;stroke-miterlimit:10;}
	.st1{fill:none;stroke:#231F20;stroke-width:0.75;stroke-miterlimit:10;}
	.st2{fill:none;stroke:#414042;stroke-width:0.5;stroke-miterlimit:10;}
	.st3{fill:none;stroke:#231F20;stroke-width:0.5;stroke-miterlimit:10;}
	.st4{fill:none;stroke:#F78F1E;stroke-width:0.25;stroke-miterlimit:10;}
</style>
<g>
	<g>
		<g>
			<path class="st2" d="M0.39,30l3.56,1.19l4.51-11.82V15.8l0.25,16.35H23.9l0.35-16.45l0,3.86l4.3,11.42l3.46-0.89l-5.23-19.64
				c-0.23-0.86-0.84-1.57-1.66-1.93l-2.79-1.22c0,0,0.63-3.37-6.13-3.46c-6.76-0.1-5.92,3.66-5.92,3.66L8.07,8.46
				C7.28,8.8,6.68,9.47,6.43,10.29L0.39,30z"/>
			<line class="st2" x1="14.37" y1="8.81" x2="14.37" y2="14.03"/>
			<line class="st2" x1="8.59" y1="30.08" x2="24.03" y2="30.08"/>
			<polyline class="st2" points="10.96,27.1 13.66,22.55 19.12,22.55 21.87,27.1 			"/>
			<line class="st2" x1="1.07" y1="27.9" x2="4.79" y2="29.08"/>
			<line class="st2" x1="27.82" y1="29.06" x2="31.46" y2="28.21"/>
			<line class="st2" x1="17.96" y1="8.81" x2="17.96" y2="14.03"/>
		</g>
		<line class="st2" x1="12.66" y1="7.31" x2="19.85" y2="7.31"/>
		<polyline class="st2" points="10.28,7.51 16.2,9.25 22.33,7.31 		"/>
	</g>
	<path class="st2" d="M16.2,9.25c0,0,5.18-2.21,4.22-2.98c-0.48-0.38-1.7-0.75-2.57-1.03c-1.07-0.34-2.22-0.34-3.28,0
		c-0.87,0.28-1.86,0.65-2.34,1.03C11.26,7.04,16.2,9.25,16.2,9.25"/>
</g>
</svg>
