<?xml version="1.0" encoding="utf-8"?>
<!-- Generator: Adobe Illustrator 25.2.1, SVG Export Plug-In . SVG Version: 6.00 Build 0)  -->
<svg version="1.1" id="Layer_1" xmlns="http://www.w3.org/2000/svg" xmlns:xlink="http://www.w3.org/1999/xlink" x="0px" y="0px"
	 viewBox="0 0 32.4 36" style="enable-background:new 0 0 32.4 36;" xml:space="preserve">
<style type="text/css">
	.st0{fill:none;stroke:#231F20;stroke-miterlimit:10;}
	.st1{fill:none;stroke:#231F20;stroke-width:0.75;stroke-miterlimit:10;}
	.st2{fill:none;stroke:#414042;stroke-width:0.5;stroke-miterlimit:10;}
	.st3{fill:none;stroke:#231F20;stroke-width:0.5;stroke-miterlimit:10;}
	.st4{fill:none;stroke:#F78F1E;stroke-width:0.25;stroke-miterlimit:10;}
</style>
<g>
	<path class="st2" d="M7.9,12.56c0,0,0.05,0.87,0.09,2.28c0.12,4.36,0.26,7.12-1.31,17.51h9.52"/>
	<path class="st2" d="M7.99,14.84l-1.31,1.43l-4.65-2.42l3.39-5.96c0.35-0.61,0.9-1.07,1.56-1.3l4.46-1.56c0,0,4.03-1.28,9.52,0
		l4.46,1.56c0.66,0.23,1.22,0.7,1.56,1.3l3.39,5.96l-4.65,2.42l-1.31-1.43"/>
	<path class="st2" d="M24.5,12.56c0,0-0.05,0.87-0.09,2.28c-0.12,4.36-0.2,7.12,1.31,17.51H16.2"/>
	<path class="st2" d="M11.44,5.01c0,0,1.53,3.78,4.76,3.78c3.33,0,4.76-3.78,4.76-3.78"/>
</g>
</svg>
