<?xml version="1.0" encoding="utf-8"?>
<!-- Generator: Adobe Illustrator 25.2.1, SVG Export Plug-In . SVG Version: 6.00 Build 0)  -->
<svg version="1.1" id="Layer_1" xmlns="http://www.w3.org/2000/svg" xmlns:xlink="http://www.w3.org/1999/xlink" x="0px" y="0px"
	 viewBox="0 0 32.4 36" style="enable-background:new 0 0 32.4 36;" xml:space="preserve">
<style type="text/css">
	.st0{fill:none;stroke:#231F20;stroke-miterlimit:10;}
	.st1{fill:none;stroke:#231F20;stroke-width:0.75;stroke-miterlimit:10;}
	.st2{fill:none;stroke:#414042;stroke-width:0.5;stroke-miterlimit:10;}
	.st3{fill:none;stroke:#231F20;stroke-width:0.5;stroke-miterlimit:10;}
	.st4{fill:none;stroke:#F78F1E;stroke-width:0.25;stroke-miterlimit:10;}
</style>
<g>
	<path class="st2" d="M10.51,2.97c0,0-2.22,9.18,0.84,27.32l0.32,1.61h3.06l0.37-5.91c0.12-5.48,0.15-11.79,1.11-13.37
		c0.95,1.58,1.07,7.8,1.13,13.28l0.34,6h3.06l0.32-1.61c3.06-18.14,0.84-27.32,0.84-27.32"/>
	<ellipse class="st2" cx="16.26" cy="3.09" rx="5.75" ry="0.43"/>
	<path class="st2" d="M10.3,4.61c0,0,5.29,1.41,11.72,0"/>
	<path class="st2" d="M11.28,4.77c0,0-0.55,2.78-1.26,3.56"/>
	<path class="st2" d="M21.12,4.77c0,0,0.4,2.71,1.26,3.56"/>
	<line class="st2" x1="14.75" y1="30.46" x2="11.54" y2="30.41"/>
	<line class="st2" x1="17.68" y1="30.4" x2="21.05" y2="30.29"/>
</g>
</svg>
