<?xml version="1.0" encoding="utf-8"?>
<!-- Generator: Adobe Illustrator 26.3.1, SVG Export Plug-In . SVG Version: 6.00 Build 0)  -->
<svg version="1.1" id="Layer_1" xmlns="http://www.w3.org/2000/svg" xmlns:xlink="http://www.w3.org/1999/xlink" x="0px" y="0px"
	 viewBox="0 0 57.6 57.6" style="enable-background:new 0 0 57.6 57.6;" xml:space="preserve">
<style type="text/css">
	.st0{fill:none;stroke:#000000;stroke-miterlimit:10;}
	.st1{fill:none;stroke:#000000;stroke-width:0.75;stroke-miterlimit:10;}
	.st2{fill:none;stroke:#414042;stroke-width:0.5;stroke-miterlimit:10;}
	.st3{clip-path:url(#SVGID_00000094586292632524187650000006421848711091244980_);}
	
		.st4{clip-path:url(#SVGID_00000046298243857631627630000012261491063858572983_);fill-rule:evenodd;clip-rule:evenodd;fill:#FFFFFF;}
	
		.st5{clip-path:url(#SVGID_00000046298243857631627630000012261491063858572983_);fill-rule:evenodd;clip-rule:evenodd;fill:#EA2027;}
	.st6{clip-path:url(#SVGID_00000046298243857631627630000012261491063858572983_);fill:#FFFFFF;}
	.st7{fill:none;stroke:#000000;stroke-width:0.5;stroke-miterlimit:10;}
	.st8{stroke:#000000;stroke-width:0.25;stroke-miterlimit:10;}
</style>
<g>
	<g id="D72eek.tif">
		<g>
			<path class="st7" d="M33.58,15.85c0.51-0.03,1.37-0.05,1.84-0.05c0.29,0,0.65-0.13,0.71,0.75c0.09,1.23,0.1,2.46,0.11,3.69
				c0.02,1.49-0.02,2.99,0,4.48c0.01,0.52,0.06,1.06,0.25,1.54c0.34,0.91,0.79,1.77,1.2,2.65c0.03,0.07,0.08,0.13,0.11,0.19
				c0.38,0.78,0.44,1.6,0.05,2.37c-0.55,1.07-1.52,1.68-2.57,2.18c-0.89,0.43-1.8,0.83-2.63,1.36c-1.64,1.05-3.02,2.41-4.34,3.84
				c-0.81,0.88-1.61,1.77-2.61,2.44c-0.93,0.63-1.94,1.03-3.09,1.05c-1.05,0.01-2.01-0.28-2.89-0.81c-0.67-0.4-1.17-0.99-1.35-1.78
				c-0.27-1.13,0.17-2.12,0.72-3.06c0.17-0.29,0.41-0.56,0.65-0.81c0.56-0.57,1.13-1.13,1.7-1.69c0.45-0.45,0.91-0.91,1.35-1.36
				c0.76-0.78,1.54-1.56,2.28-2.36c0.51-0.55,0.96-1.16,1.46-1.71c0.6-0.66,0.95-1.41,0.88-2.31c-0.07-0.85-0.15-1.7-0.28-2.54
				c-0.17-1.12-0.39-2.24-0.59-3.36c-0.15-0.82-0.33-1.63-0.44-2.46c-0.12-0.9-0.12-1.26,0.36-1.45c0.43-0.17,0.93-0.24,1.38-0.29
				c1.62-0.17,3.24-0.28,4.87-0.41C33.15,15.9,33.15,15.89,33.58,15.85z"/>
		</g>
	</g>
	<path d="M32.29,19.34c-0.16,0.07-0.32,0.13-0.48,0.17c-0.15,0.03-0.13,0.02-0.14-0.04c-0.02-0.26-0.03-0.53-0.05-0.79
		c-0.01-0.07,0-0.07,0.07-0.06c0.14,0,0.3,0.03,0.47,0.07c0.03,0.01,0.16,0.07,0.08-0.04c-0.18-0.23-0.69-0.25-0.86-0.25
		c-1.04,0.04-1.51,0.73-1.01,1.14c0.19,0.15,0.45,0.24,0.77,0.25c0.14,0.01,0.27,0,0.41-0.03c0.12-0.02,0.22-0.05,0.31-0.08
		c0.25-0.09,0.42-0.24,0.5-0.35C32.42,19.26,32.34,19.32,32.29,19.34z M31.01,19.55c0,0.01,0,0.02-0.01,0.02
		c-0.01,0.01-0.15,0-0.22-0.01c-0.09-0.02-0.28-0.09-0.37-0.24c-0.05-0.08-0.05-0.18-0.05-0.21c0.03-0.24,0.27-0.39,0.5-0.44
		c0.02-0.01,0.04-0.01,0.05-0.01c0.03,0,0.03,0.01,0.03,0.03L31.01,19.55z"/>
	<line class="st8" x1="29.19" y1="17.73" x2="29.05" y2="16.4"/>
	<line class="st8" x1="30.43" y1="17.57" x2="30.27" y2="16.25"/>
	<line class="st8" x1="31.63" y1="17.39" x2="31.52" y2="16.07"/>
	<line class="st8" x1="32.88" y1="17.31" x2="32.77" y2="15.98"/>
	<line class="st8" x1="34.09" y1="17.23" x2="33.98" y2="15.9"/>
	<line class="st8" x1="35.12" y1="17.15" x2="35.01" y2="15.82"/>
	<line class="st8" x1="27.95" y1="17.9" x2="27.84" y2="16.57"/>
	<line class="st8" x1="26.89" y1="18.06" x2="26.78" y2="16.73"/>
	<path class="st8" d="M26.11,18.09c0,0,8.11-1.06,10.07-0.94"/>
</g>
</svg>
