<?xml version="1.0" encoding="utf-8"?>
<!-- Generator: Adobe Illustrator 25.2.1, SVG Export Plug-In . SVG Version: 6.00 Build 0)  -->
<svg version="1.1" id="Layer_1" xmlns="http://www.w3.org/2000/svg" xmlns:xlink="http://www.w3.org/1999/xlink" x="0px" y="0px"
	 viewBox="0 0 32.4 36" style="enable-background:new 0 0 32.4 36;" xml:space="preserve">
<style type="text/css">
	.st0{fill:none;stroke:#231F20;stroke-miterlimit:10;}
	.st1{fill:none;stroke:#231F20;stroke-width:0.75;stroke-miterlimit:10;}
	.st2{fill:none;stroke:#414042;stroke-width:0.5;stroke-miterlimit:10;}
	.st3{fill:none;stroke:#231F20;stroke-width:0.5;stroke-miterlimit:10;}
	.st4{fill:none;stroke:#F78F1E;stroke-width:0.25;stroke-miterlimit:10;}
</style>
<g>
	<g>
		<g>
			<path class="st2" d="M0.32,30.05l3.58,1.19l4.52-11.87v-3.58l0.25,16.42h15.26l0.36-16.52l0,3.87l4.32,11.47l3.47-0.89
				l-5.24-19.69c-0.24-0.89-0.86-1.62-1.71-1.99l-2.77-1.21c0,0,0.63-3.38-6.16-3.48s-5.95,3.68-5.95,3.68L8.06,8.41
				c-0.81,0.35-1.43,1.04-1.69,1.89L0.32,30.05z"/>
			<line class="st2" x1="16.2" y1="9.21" x2="16.2" y2="30.14"/>
			<line class="st2" x1="8.55" y1="30.14" x2="24.07" y2="30.14"/>
			<line class="st2" x1="8.61" y1="27.14" x2="11.33" y2="22.57"/>
			<line class="st2" x1="23.98" y1="27.14" x2="21.22" y2="22.57"/>
			<line class="st2" x1="1.01" y1="27.95" x2="4.74" y2="29.13"/>
			<line class="st2" x1="27.87" y1="29.11" x2="31.53" y2="28.25"/>
		</g>
		<line class="st2" x1="12.64" y1="7.26" x2="19.86" y2="7.26"/>
		<polyline class="st2" points="10.25,7.46 16.2,9.21 22.36,7.26 		"/>
	</g>
	<path class="st2" d="M16.2,9.21c0,0,5.2-2.22,4.23-2.99c-0.48-0.38-1.71-0.75-2.58-1.03c-1.07-0.34-2.23-0.34-3.3,0
		c-0.88,0.28-1.87,0.65-2.35,1.03C11.23,6.99,16.2,9.21,16.2,9.21"/>
</g>
</svg>
